<mxfile host="app.diagrams.net" modified="2023-11-11T09:28:22.161Z" agent="Mozilla/5.0 (Macintosh; Intel Mac OS X 10_15_7) AppleWebKit/537.36 (KHTML, like Gecko) Chrome/119.0.0.0 Safari/537.36" etag="bS7mQDYjUijnzeMoh6W3" version="22.1.0" type="github">
  <diagram id="C5RBs43oDa-KdzZeNtuy" name="Page-1">
    <mxGraphModel dx="969" dy="765" grid="1" gridSize="10" guides="1" tooltips="1" connect="1" arrows="1" fold="1" page="1" pageScale="1" pageWidth="827" pageHeight="1169" math="0" shadow="0">
      <root>
        <mxCell id="WIyWlLk6GJQsqaUBKTNV-0" />
        <mxCell id="WIyWlLk6GJQsqaUBKTNV-1" parent="WIyWlLk6GJQsqaUBKTNV-0" />
        <mxCell id="-MvyKmHyonaJJNELoexQ-0" value="&lt;font style=&quot;font-size: 21px;&quot;&gt;background&lt;/font&gt;" style="whiteSpace=wrap;html=1;aspect=fixed;" vertex="1" parent="WIyWlLk6GJQsqaUBKTNV-1">
          <mxGeometry x="70" y="170" width="170" height="170" as="geometry" />
        </mxCell>
        <mxCell id="-MvyKmHyonaJJNELoexQ-1" value="&lt;font style=&quot;font-size: 21px;&quot;&gt;content_script&lt;/font&gt;" style="whiteSpace=wrap;html=1;aspect=fixed;" vertex="1" parent="WIyWlLk6GJQsqaUBKTNV-1">
          <mxGeometry x="380" y="170" width="170" height="170" as="geometry" />
        </mxCell>
        <mxCell id="-MvyKmHyonaJJNELoexQ-2" value="&lt;span style=&quot;font-size: 21px;&quot;&gt;ineject_script&lt;/span&gt;" style="whiteSpace=wrap;html=1;aspect=fixed;" vertex="1" parent="WIyWlLk6GJQsqaUBKTNV-1">
          <mxGeometry x="380" y="440" width="170" height="170" as="geometry" />
        </mxCell>
        <mxCell id="-MvyKmHyonaJJNELoexQ-3" value="&lt;font style=&quot;font-size: 21px;&quot;&gt;back_end&lt;/font&gt;" style="whiteSpace=wrap;html=1;aspect=fixed;" vertex="1" parent="WIyWlLk6GJQsqaUBKTNV-1">
          <mxGeometry x="70" y="440" width="170" height="170" as="geometry" />
        </mxCell>
        <mxCell id="-MvyKmHyonaJJNELoexQ-4" value="" style="endArrow=classic;startArrow=classic;html=1;rounded=0;" edge="1" parent="WIyWlLk6GJQsqaUBKTNV-1">
          <mxGeometry width="50" height="50" relative="1" as="geometry">
            <mxPoint x="254" y="230" as="sourcePoint" />
            <mxPoint x="360" y="230.5" as="targetPoint" />
          </mxGeometry>
        </mxCell>
        <mxCell id="-MvyKmHyonaJJNELoexQ-11" value="가공 데이터&amp;nbsp;" style="edgeLabel;html=1;align=center;verticalAlign=middle;resizable=0;points=[];" vertex="1" connectable="0" parent="-MvyKmHyonaJJNELoexQ-4">
          <mxGeometry x="0.0943" relative="1" as="geometry">
            <mxPoint as="offset" />
          </mxGeometry>
        </mxCell>
        <mxCell id="-MvyKmHyonaJJNELoexQ-6" value="" style="endArrow=classic;startArrow=classic;html=1;rounded=0;" edge="1" parent="WIyWlLk6GJQsqaUBKTNV-1">
          <mxGeometry width="50" height="50" relative="1" as="geometry">
            <mxPoint x="156" y="425.5" as="sourcePoint" />
            <mxPoint x="154" y="356" as="targetPoint" />
            <Array as="points">
              <mxPoint x="156" y="406" />
            </Array>
          </mxGeometry>
        </mxCell>
        <mxCell id="-MvyKmHyonaJJNELoexQ-7" value="&lt;font style=&quot;font-size: 13px;&quot;&gt;웹페이지 context 데이터 전송&lt;/font&gt;" style="endArrow=classic;startArrow=classic;html=1;rounded=0;" edge="1" parent="WIyWlLk6GJQsqaUBKTNV-1">
          <mxGeometry width="50" height="50" relative="1" as="geometry">
            <mxPoint x="466" y="429.5" as="sourcePoint" />
            <mxPoint x="464" y="360" as="targetPoint" />
            <Array as="points">
              <mxPoint x="466" y="410" />
            </Array>
          </mxGeometry>
        </mxCell>
        <mxCell id="-MvyKmHyonaJJNELoexQ-9" value="" style="endArrow=classic;startArrow=classic;html=1;rounded=0;" edge="1" parent="WIyWlLk6GJQsqaUBKTNV-1">
          <mxGeometry width="50" height="50" relative="1" as="geometry">
            <mxPoint x="255" y="280" as="sourcePoint" />
            <mxPoint x="361" y="280.5" as="targetPoint" />
          </mxGeometry>
        </mxCell>
        <mxCell id="-MvyKmHyonaJJNELoexQ-16" value="전송 결과 및 상태&amp;nbsp;" style="edgeLabel;html=1;align=center;verticalAlign=middle;resizable=0;points=[];" vertex="1" connectable="0" parent="-MvyKmHyonaJJNELoexQ-9">
          <mxGeometry x="0.019" y="-2" relative="1" as="geometry">
            <mxPoint as="offset" />
          </mxGeometry>
        </mxCell>
      </root>
    </mxGraphModel>
  </diagram>
</mxfile>
